<?xml version="1.0" encoding="utf-8"?>
<!-- Generator: Adobe Illustrator 22.1.0, SVG Export Plug-In . SVG Version: 6.00 Build 0)  -->
<svg version="1.1" id="Layer_1" xmlns="http://www.w3.org/2000/svg" xmlns:xlink="http://www.w3.org/1999/xlink" x="0px" y="0px"
	 viewBox="0 0 120 118" style="enable-background:new 0 0 120 118;" xml:space="preserve">
<style type="text/css">
	.st0{fill:#0E0033;}
</style>
<g>
	<path class="st0" d="M85.3,0.1C68,0.1,51.7,7.6,40.4,20.8l-0.7,0.9l9.1,7.8l0.7-0.9C58.5,18,71.5,12,85.3,12H120v-12H85.3z"/>
	<path class="st0" d="M49.5,89.5l-0.7-0.9l-9.1,7.8l0.7,0.9c11.2,13.2,27.6,20.7,44.9,20.7H120v-12H85.3
		C71.5,106,58.5,100,49.5,89.5"/>
	<path class="st0" d="M86.2,37.1h13.3v-12h-14c-9.4,0-18.1,3.7-24.5,10.5c-6.5,6.8-9.8,15.7-9.3,25c0.9,18,16.2,32.2,34.8,32.2h13
		v-12h-14c-6.1,0-12.1-2.6-16.2-7.2c-4.2-4.6-6.2-10.6-5.6-16.9C64.8,45.8,74.7,37.1,86.2,37.1"/>
	<path class="st0" d="M47,18C35.8,6.4,20.7,0.1,4.7,0.1H-30v12H4.7c12.9,0,24.9,5.1,33.8,14.4c8.9,9.3,13.6,21.5,13.1,34.4
		C50.7,85.7,29.1,106,3.5,106H-30v12H3.5c32.2,0,59.2-25.6,60.1-57.2C64.1,44.7,58.2,29.5,47,18"/>
	<path class="st0" d="M29,35.7c-6.5-6.8-15.2-10.5-24.5-10.5h-14v12h14c6.1,0,12.1,2.6,16.2,7.2c4.2,4.6,6.2,10.6,5.6,16.9
		c-1,11.1-10.9,19.8-22.5,19.8H-9.5v12h13c18.6,0,33.9-14.1,34.8-32.2C38.7,51.3,35.4,42.4,29,35.7"/>
</g>
</svg>
