<svg width="130" height="130" viewBox="0 0 130 130" fill="none" xmlns="http://www.w3.org/2000/svg">
<g style="mix-blend-mode:multiply">
<rect width="130" height="130" rx="65" fill="white"/>
<rect width="130" height="130" rx="65" fill="#3C7F61" fill-opacity="0.2"/>
</g>
<rect x="38" y="24" width="16" height="5" stroke="#3B7E61" stroke-width="3" stroke-linecap="round" stroke-linejoin="round"/>
<rect width="16" height="5" transform="matrix(-1 0 0 1 109 76)" stroke="#3B7E61" stroke-width="3" stroke-linecap="round" stroke-linejoin="round"/>
<rect x="36" y="29" width="20" height="8" stroke="#3B7E61" stroke-width="3" stroke-linecap="round" stroke-linejoin="round"/>
<rect width="20" height="9" transform="matrix(-1 0 0 1 111 81)" stroke="#3B7E61" stroke-width="3" stroke-linecap="round" stroke-linejoin="round"/>
<path d="M36 37H109.986C110.546 37 111 37.4538 111 38.0135V38.0135C111 45.738 104.738 52 97.0135 52H41C38.2386 52 36 49.7614 36 47V37Z" stroke="#3B7E61" stroke-width="3" stroke-linecap="round" stroke-linejoin="round"/>
<path d="M111 90H36.8784C36.3933 90 36 90.3933 36 90.8784V90.8784C36 97.573 41.427 103 48.1216 103H106C108.761 103 111 100.761 111 98V90Z" stroke="#3B7E61" stroke-width="3" stroke-linecap="round" stroke-linejoin="round"/>
<path d="M13 69L17.9015 65.792C19.5647 64.7035 21.7146 64.7035 23.3777 65.792L25.5412 67.208C27.2043 68.2965 29.3542 68.2965 31.0174 67.208L33.262 65.7389C34.8836 64.6776 36.9724 64.6489 38.6225 65.6653L41.1414 67.2169C42.8883 68.293 45.1154 68.1926 46.7585 66.9637L47.9983 66.0363C49.6413 64.8074 51.8684 64.707 53.6154 65.7831L56.044 67.279C57.7402 68.3239 59.8949 68.2621 61.5284 67.1217L66 64" stroke="#3B7E61" stroke-width="3" stroke-linecap="round" stroke-linejoin="round"/>
<path d="M30 77L34.9015 73.792C36.5647 72.7035 38.7146 72.7035 40.3777 73.792L42.5412 75.208C44.2043 76.2965 46.3542 76.2965 48.0174 75.208L50.262 73.7389C51.8836 72.6776 53.9724 72.6489 55.6225 73.6653L58.1414 75.2169C59.8883 76.293 62.1154 76.1926 63.7585 74.9637L64.9983 74.0363C66.6413 72.8074 68.8684 72.707 70.6154 73.7831L73.044 75.279C74.7402 76.3239 76.8949 76.2621 78.5284 75.1217L83 72" stroke="#3B7E61" stroke-width="3" stroke-linecap="round" stroke-linejoin="round"/>
</svg>
