<?xml version="1.0" encoding="utf-8"?>
<!-- Generator: Adobe Illustrator 22.1.0, SVG Export Plug-In . SVG Version: 6.00 Build 0)  -->
<svg version="1.1" id="Layer_1" xmlns="http://www.w3.org/2000/svg" xmlns:xlink="http://www.w3.org/1999/xlink" x="0px" y="0px"
	 viewBox="0 0 65 65" style="enable-background:new 0 0 65 65;" xml:space="preserve">
<style type="text/css">
	.st0{fill:#FFFFFF;}
</style>
<g>
	<g>
		<path class="st0" d="M22.8,49.5c-2.7,0.6-5.2,1.4-7.8,1.7c-2.3,0.3-4.7,0.3-7-0.1c-3.5-0.6-4.9-3.4-3.8-6.8
			c1.1-3.5,3.4-6.2,5.9-8.8c0.9-1,1.9-2,2.9-3c-0.8-0.9-1.8-1.8-2.7-2.8c-2.3-2.4-4.4-4.8-5.7-7.9c-0.3-0.8-0.6-1.6-0.7-2.4
			c-0.3-2.6,0.8-4.5,3.3-5.3c2.9-1,5.8-0.7,8.7-0.2c2.3,0.4,4.6,1.1,6.9,1.6c0.6-2,1.1-4,1.7-6c0.9-2.7,2.1-5.3,4-7.5
			c2.4-2.7,5.4-2.7,7.9-0.1c2.3,2.4,3.4,5.3,4.4,8.4c0.6,1.7,1,3.5,1.4,5.1c2.8-0.6,5.6-1.4,8.4-1.7c2-0.3,4-0.3,6,0.1
			c4.1,0.7,5.6,3.7,4.1,7.5c-1.3,3.3-3.5,5.9-5.9,8.4c-0.9,0.9-1.8,1.9-2.7,2.9c1.3,1.3,2.7,2.6,4,3.9c2,2.1,3.6,4.4,4.7,7.1
			c0.9,2.5,0.7,4.9-1.1,6.1c-1.1,0.8-2.5,1.3-3.8,1.5c-4,0.6-7.9-0.4-11.8-1.5c-0.5-0.2-1.1-0.3-1.7-0.5c-0.6,2.1-1.1,4.2-1.8,6.2
			c-0.9,2.6-1.9,5-3.8,7.1c-2.6,3-5.8,3.1-8.5,0c-2.4-2.8-3.6-6.1-4.6-9.6C23.4,51.9,23.1,50.7,22.8,49.5z M42.6,48.3
			c2.8,1,5.8,1.7,8.8,2c2.1,0.2,4.2,0.3,6.2-0.5c1.8-0.7,2.7-2,2.5-3.7c-0.1-0.7-0.2-1.4-0.5-2.1c-1.5-3.8-4.2-6.6-7-9.4
			c-0.5-0.5-1-0.9-1.4-1.3c-2.5,1.8-4.8,3.6-7.1,5.3c-0.2,0.2-0.4,0.5-0.5,0.8C43.2,42.4,42.9,45.2,42.6,48.3z M42.6,16.7
			c0.3,3,0.6,5.9,1,8.7c0,0.4,0.3,0.8,0.6,1c2.1,1.6,4.2,3.2,6.4,4.8c0.3,0.2,0.9,0.2,1.1,0c2.9-2.6,5.6-5.4,7.5-9
			c0.2-0.4,0.4-0.8,0.5-1.2c1.4-3.5-0.1-6-3.9-6.4C51.2,14.2,46.9,15.4,42.6,16.7z M22.5,48.5c-0.4-3.2-0.7-6.2-1-9.1
			c0-0.2-0.2-0.5-0.3-0.7c-2.4-1.8-4.8-3.6-7.3-5.4c-0.8,0.8-1.7,1.6-2.5,2.4c-2.4,2.5-4.8,5.1-6,8.5c-1.2,3.3,0.3,5.7,3.8,6
			c1.6,0.2,3.4,0.2,5,0C16.9,49.8,19.7,49.1,22.5,48.5z M22.4,16.8c0,0-0.1-0.1-0.1-0.1c-0.6-0.2-1.1-0.4-1.7-0.6
			c-3.7-1-7.4-1.9-11.2-1.5c-3.9,0.4-5.4,2.9-3.9,6.5c0.1,0.2,0.1,0.3,0.2,0.5c1.8,3.8,4.7,6.8,7.8,9.6c0.2,0.2,0.9,0.2,1.1,0
			c2.2-1.6,4.3-3.2,6.4-4.8c0.2-0.2,0.5-0.5,0.5-0.8C21.8,22.7,22.1,19.8,22.4,16.8z M32.4,63.9c1.6-0.1,2.7-1,3.7-2.1
			c2.8-3.6,4-7.9,5-12.2c0.2-0.7-0.4-0.8-0.8-1c-2.3-1-4.6-2-6.9-2.9c-0.5-0.2-1.1-0.2-1.6,0c-1.9,0.7-3.7,1.6-5.5,2.4
			c-2.4,1-2.4,1-1.8,3.5c0.9,3.4,2,6.8,4.1,9.7C29.5,62.6,30.7,63.7,32.4,63.9z M32.5,1.1c-1.8,0.1-3,1.3-4,2.7
			C26.1,7.1,25,11,24,15c-0.2,0.9,0.1,1.1,0.8,1.4c2.3,0.9,4.5,1.9,6.8,2.8c0.5,0.2,1.3,0.2,1.8,0c1.6-0.6,3.1-1.3,4.7-2
			c1-0.4,2.5-0.6,2.8-1.4c0.4-0.8-0.3-2.1-0.6-3.2c-0.9-3.3-2-6.6-4.2-9.3C35.3,2.1,34.1,1.2,32.5,1.1z M42.6,32.6
			C42.6,32.6,42.6,32.6,42.6,32.6c0-1.5,0-3,0.1-4.6c0-1-0.4-1.6-1.2-2.1c-2.7-1.5-5.5-3.1-8.2-4.6c-0.4-0.2-1.1-0.2-1.4,0
			c-3,1.7-5.9,3.4-8.8,5.1c-0.3,0.2-0.5,0.7-0.5,1c0,3.4,0,6.8,0,10.1c0,0.4,0.3,0.9,0.6,1.1c2.9,1.7,5.9,3.5,8.8,5.1
			c0.3,0.2,0.8,0.2,1.1,0c2.9-1.7,5.9-3.3,8.8-5.1c0.4-0.2,0.7-0.8,0.7-1.2C42.7,35.8,42.6,34.2,42.6,32.6z M22.5,39.7
			c0.4,2.9,0.7,5.5,1.1,8.3c2.7-1.1,5.1-2.1,7.6-3.2C28.2,43.1,25.5,41.5,22.5,39.7z M31.3,20.2c-2.7-1.1-5.1-2.1-7.7-3.2
			c-0.4,2.8-0.7,5.4-1.1,8.2C25.5,23.5,28.2,21.9,31.3,20.2z M43.8,27.5c0,3.5,0,6.6,0,10c2.2-1.7,4.3-3.3,6.5-5
			C48.1,30.8,46.1,29.2,43.8,27.5z M41.5,48c0.4-2.8,0.7-5.4,1-8.2c-3,1.7-5.8,3.3-8.7,5C36.4,45.9,38.8,46.9,41.5,48z M41.4,17
			c-2.6,1.1-5.1,2.1-7.7,3.2c3,1.7,5.8,3.4,8.7,5.1C42.2,22.5,41.8,19.9,41.4,17z M14.6,32.5c2.3,1.8,4.4,3.3,6.6,5
			c0-3.5,0-6.6,0-10C18.9,29.2,16.9,30.8,14.6,32.5z"/>
		<path class="st0" d="M38.1,28.2c0.1,0.3,0.3,0.6,0.3,0.9c0,2.7,0,5.5,0.1,8.2c0,1-0.6,1.6-1.4,1.9c-3.1,1.2-6.2,1.1-9.2,0
			c-0.8-0.3-1.3-0.9-1.2-1.8c0-3.2,0-6.4,0-9.6c0-1,0.6-1.6,1.4-2c2.5-0.9,5-1.2,7.6-0.3c0.2,0.4,0.5,0.7,0.7,1.1
			c-0.3,0-0.6-0.1-0.9-0.1c-2.1-0.5-4.2-0.5-6.3,0.2c-0.5,0.2-0.9,0.5-1.6,0.9c0.7,0.4,1,0.7,1.5,0.8c1.5,0.2,3.1,0.6,4.6,0.5
			c1.4-0.1,2.8-0.7,4.1-1C37.8,27.8,37.9,28,38.1,28.2z M27.8,31.5c-0.2,1-0.2,1.2,0.5,1.5c2.8,1.1,5.5,1.2,8.3,0
			c0.4-0.2,0.6-0.8,0.9-1.2c-0.1-0.1-0.2-0.2-0.3-0.3C34.1,32.6,31,32.7,27.8,31.5z M27.8,34.1c-0.1,0.1-0.2,0.2-0.3,0.3
			c0.3,0.4,0.5,1,0.9,1.1c2.7,1.2,5.5,1.1,8.3,0c0.7-0.3,0.9-0.8,0.6-1.5C34.1,35.3,31,35.2,27.8,34.1z M37.2,36.7
			c-3.1,1.1-6.3,1.1-9.5,0c-0.4,0.9,0.1,1.4,0.8,1.6c2.7,0.9,5.3,0.9,8-0.1C37.3,37.9,37.5,37.5,37.2,36.7z M37.3,29.2
			c-1.6,0.2-3.2,0.6-4.8,0.6c-1.6,0-3.2-0.4-4.8-0.6c-0.3,0.8,0.2,1.2,0.9,1.4c2.6,0.9,5.3,0.9,7.9,0C37.3,30.3,37.6,29.9,37.3,29.2
			z"/>
		<path class="st0" d="M36.1,26.5c-0.2-0.4-0.3-0.7-0.5-1c0.9,0.4,1.8,0.7,2.5,1.2c0.4,0.3,0.8,1.1,0,1.6c-0.2-0.2-0.3-0.4-0.5-0.6
			C37.3,27.1,37.1,27,36.1,26.5z"/>
	</g>
</g>
</svg>
