<?xml version="1.0" encoding="utf-8"?>
<!-- Generator: Adobe Illustrator 22.1.0, SVG Export Plug-In . SVG Version: 6.00 Build 0)  -->
<svg version="1.1" id="Layer_1" xmlns="http://www.w3.org/2000/svg" xmlns:xlink="http://www.w3.org/1999/xlink" x="0px" y="0px"
	 viewBox="0 0 65 65" style="enable-background:new 0 0 65 65;" xml:space="preserve">
<style type="text/css">
	.st0{fill:#ffffff;}
</style>
<path class="st0" d="M2.9,7.8C1.9,7.8,1.3,8,1,8.3c-0.3,0.3-0.5,0.9-0.5,2c0.1,12,0.1,24.4,0,37.8c0,1.1,0.2,1.7,0.5,2.1
	c0.3,0.4,0.9,0.5,1.9,0.5l0.1,0c2.8,0,5.8-0.1,9.5-0.1c2.4,0,4.8,0,7.2,0c1.7,0,3.5,0,5.2,0c0.4,0,0.9,0,1.5,0.1
	c0.4,0,0.8,0.1,1.3,0.1l1,0.1l-0.7,0.7c-0.5,0.5-0.9,0.9-1.2,1.3c-0.8,0.9-1.5,1.6-2.2,2.3c-0.4,0.4-0.8,0.7-1.2,1.1c0,0,0,0,0,0
	c0,0,0.1,0,0.1,0.1c0.4,0.3,0.9,0.6,1.2,0.6c3.4,0.1,6.8,0.1,10.2,0.1l2.1,0l0.6,0c0.2,0,0.5,0,0.7,0c0.7,0,1.6,0,2.5-0.1
	c0.3,0,0.8-0.5,0.9-0.7c0-0.2-0.3-0.6-0.5-0.8c-2.2-0.1-2.7-1.6-3.3-2.9c-0.2-0.5-0.4-0.9-0.6-1.3L37,50.6h0.9H39h0.9h0.9
	c2,0,4,0,5.9,0c2,0,4,0,6,0c3.7,0,6.8,0,9.5,0.1l0.1,0c0.9,0,1.4-0.1,1.7-0.5c0.3-0.3,0.5-0.9,0.5-1.8c-0.1-12.9-0.1-25.8,0-38.3
	c0-0.9-0.1-1.5-0.4-1.8c-0.3-0.3-0.9-0.5-1.9-0.5c-10.2,0-20.1,0-29.5,0C22.5,7.9,12.5,7.8,2.9,7.8L2.9,7.8L2.9,7.8L2.9,7.8z
	 M36.3,55.3h-7.6h-0.8l0.4-0.7c0.2-0.4,0.3-0.8,0.4-1.2c0.4-1.2,0.9-2.6,2.9-2.7c0.5,0,1-0.1,1.4-0.1c2.3,0,2.8,1,3.8,4l0.2,0.7
	H36.3z M62.1,9.6h0.5v0.5v38.1v0.5h-0.5H2.9H2.4v-0.5V10.1V9.6h0.5H62.1z"/>
<path class="st0" d="M58,12.7c-8.8,0-17.7,0.1-26.4,0.1c-8.2,0-16.5,0-24.7,0c-0.8,0-1.3,0.1-1.6,0.4C5.2,13.4,5,13.9,5,14.7
	C5.1,26,5.1,35.1,5,43.6c0,0.9,0.1,1.4,0.4,1.7c0.3,0.3,0.8,0.4,1.6,0.4l0.1,0c3.4,0,7.1-0.1,11.7-0.1c2.3,0,4.7,0,7,0
	c2.2,0,4.4,0,6.6,0l0.3,0c2.2,0,4.4,0,6.7,0c2.2,0,4.4,0,6.7,0c4.6,0,8.2,0,11.6,0.1l0.1,0c0.9,0,1.5-0.1,1.8-0.5
	c0.3-0.3,0.5-0.9,0.4-1.9c-0.1-8.2-0.1-17,0-28.4c0-1-0.1-1.5-0.4-1.8C59.4,12.8,58.8,12.7,58,12.7L58,12.7C58,12.7,58,13.2,58,12.7
	L58,12.7z M58.1,14.2h0.5v0.5v29v0.5h-0.5h-51H6.6v-0.5v-29v-0.5h0.5H58.1z"/>
<g>
	<path class="st0" d="M22.6,23.7c0.9,0.1,1.6,0.3,2.3,0.4c0.2,0,0.5-0.1,0.6-0.2c0.4-0.4,0.9-0.9,1.3-1.3c0.1-0.1,0.2-0.4,0.2-0.6
		c-0.1-0.7-0.2-1.4-0.4-2.1c-0.1-0.3,0-0.6,0.4-0.7c0.6-0.3,1.2-0.5,1.9-0.8c0.3-0.2,0.6-0.1,0.8,0.2c0.4,0.6,0.8,1.1,1.2,1.7
		c0.1,0.2,0.4,0.2,0.6,0.3c0.4,0,0.8-0.1,1.1,0c0.8,0.2,1.3-0.2,1.7-0.9c1-1.6,1-1.6,2.8-0.8c1.2,0.5,1.1,0.4,0.9,1.5
		c-0.2,1.1-0.3,2,0.8,2.8c0.7,0.5,1.1,0.8,1.9,0.6c1.8-0.4,1.8-0.3,2.5,1.4c0,0.1,0,0.1,0.1,0.2c0.4,0.9,0.4,1-0.4,1.4
		c-1.2,0.7-1.8,1.5-1.6,3c0.1,0.6,0.1,1,0.7,1.3c0.5,0.3,0.9,0.6,1.4,0.9c0.3,0.2,0.4,0.4,0.3,0.8c-0.3,0.6-0.5,1.2-0.7,1.8
		c-0.2,0.4-0.4,0.5-0.8,0.4c-0.6-0.1-1.2-0.3-1.9-0.3c-0.2,0-0.5,0.1-0.7,0.3c-0.3,0.3-0.5,0.7-0.9,0.9c-0.6,0.4-0.6,0.8-0.5,1.4
		c0.1,0.5,0.2,1.1,0.3,1.6c0.1,0.3,0,0.6-0.4,0.7c-0.6,0.3-1.3,0.6-1.9,0.8c-0.2,0.1-0.6-0.1-0.7-0.2c-0.5-0.5-0.8-1.1-1.3-1.7
		c-0.1-0.2-0.4-0.3-0.6-0.3c-0.4,0-0.9,0.1-1.3,0.1c-0.8-0.1-1.2,0.2-1.5,0.8c-0.1,0.2-0.3,0.5-0.5,0.7c-0.8,1.1-0.5,1-1.7,0.5
		c-0.4-0.2-0.8-0.3-1.2-0.5c-0.4-0.1-0.5-0.4-0.4-0.8c0.1-0.6,0.2-1.3,0.3-1.9c0.1-0.3,0-0.5-0.3-0.7c-0.4-0.3-0.8-0.8-1.2-1.2
		c-0.2-0.2-0.5-0.3-0.7-0.2c-0.7,0.1-1.3,0.2-2,0.3c-0.4,0.1-0.6,0-0.7-0.4c-0.2-0.6-0.5-1.2-0.8-1.8c-0.2-0.4-0.1-0.6,0.2-0.9
		c0.6-0.4,1.1-0.8,1.6-1.2c0.2-0.1,0.3-0.4,0.3-0.7c0-0.5,0-1.1,0-1.6c0-0.4-0.1-0.6-0.4-0.8c-0.5-0.3-1-0.7-1.6-1.1
		c-0.3-0.2-0.4-0.4-0.3-0.8c0.3-0.6,0.5-1.3,0.8-1.9C22.2,24,22.5,23.8,22.6,23.7z M27.3,19.8c0.1,0.8,0.3,1.6,0.4,2.4
		c0,0.2-0.1,0.6-0.3,0.7c-0.5,0.6-1.1,1.1-1.5,1.7c-0.3,0.3-0.5,0.4-0.9,0.3c-0.2,0-0.4-0.1-0.6-0.1c-0.5-0.1-1.2-0.4-1.6-0.2
		c-0.4,0.2-0.5,1-0.7,1.5c0,0,0,0.1,0,0.2c0.6,0.4,1.2,0.8,1.8,1.2c0.4,0.2,0.5,0.5,0.4,0.9c0,0.7,0,1.4,0.1,2.1
		c0,0.4,0,0.6-0.3,0.8c-0.7,0.5-1.3,0.9-1.9,1.4c0.3,0.6,0.5,1.1,0.7,1.6c0.1,0,0.1,0,0.2,0c0.7-0.1,1.4-0.3,2.2-0.4
		c0.3,0,0.6,0.1,0.8,0.3c0.5,0.4,1,1,1.5,1.4c0.5,0.3,0.6,0.7,0.4,1.2c0,0.1,0,0.3-0.1,0.4c-0.1,0.5-0.4,1.2-0.2,1.6
		c0.2,0.4,1,0.5,1.5,0.7c0,0,0.1,0,0.2,0c0.4-0.6,0.9-1.2,1.3-1.9c0.2-0.3,0.4-0.4,0.8-0.4c0.8,0,1.5-0.1,2.3,0
		c0.3,0,0.6,0.1,0.7,0.3c0.5,0.6,1,1.3,1.4,1.9c0.6-0.3,1.1-0.5,1.7-0.7c-0.1-0.8-0.3-1.6-0.4-2.3c-0.1-0.4,0-0.6,0.3-0.9
		c0.5-0.5,1-0.9,1.4-1.5c0.3-0.4,0.6-0.5,1.1-0.4c0.7,0.1,1.4,0.2,2.2,0.4c0.2-0.6,0.4-1.1,0.7-1.7c-0.7-0.5-1.3-0.9-1.9-1.3
		c-0.3-0.2-0.4-0.4-0.4-0.8c0-0.7,0-1.5-0.1-2.2c-0.1-0.4,0-0.6,0.3-0.8c0.6-0.4,1.3-0.9,1.9-1.4c-0.3-0.6-0.5-1.1-0.7-1.7
		c-0.8,0.1-1.6,0.2-2.3,0.4c-0.4,0.1-0.7-0.1-0.9-0.3c-0.5-0.5-0.9-1-1.5-1.4c-0.4-0.3-0.5-0.5-0.4-0.9c0.1-0.6,0.2-1.2,0.3-1.9
		c0-0.2-0.1-0.4-0.2-0.5c-0.4-0.2-0.9-0.4-1.4-0.6c-0.4,0.6-0.9,1.2-1.3,1.9c-0.2,0.4-0.5,0.5-1,0.5c-0.7,0-1.4,0-2.1,0.1
		c-0.4,0.1-0.7-0.1-0.9-0.4c-0.4-0.6-0.9-1.2-1.4-1.9C28.5,19.3,27.9,19.6,27.3,19.8z"/>
	<path class="st0" d="M32.5,33.5c-2.3,0-4.2-1.9-4.2-4.1c0-2.3,1.9-4.1,4.1-4.2c2.3,0,4.2,1.9,4.2,4.1
		C36.6,31.6,34.8,33.5,32.5,33.5z M32.6,25.9c-1.9,0-3.4,1.5-3.5,3.3c0,1.9,1.5,3.4,3.4,3.5c1.8,0,3.4-1.5,3.4-3.3
		C35.9,27.5,34.4,26,32.6,25.9z"/>
</g>
</svg>
