<?xml version="1.0" encoding="utf-8"?>
<!-- Generator: Adobe Illustrator 22.1.0, SVG Export Plug-In . SVG Version: 6.00 Build 0)  -->
<svg version="1.1" id="Layer_1" xmlns="http://www.w3.org/2000/svg" xmlns:xlink="http://www.w3.org/1999/xlink" x="0px" y="0px"
	 viewBox="0 0 512 512" style="enable-background:new 0 0 512 512;" xml:space="preserve">
<style type="text/css">
	.st0{fill:#4200F8;}
</style>
<path class="st0" d="M504.3,241.5c-6-13.5-19.1-21.7-33.5-20.9c-15.2,0.8-25.9,8.4-31.7,22.6c-1.6,3.8-4.1,7.7-11.1,7.4
	c-5-0.2-10-0.2-15.3-0.1c-2.3,0-4.6,0-6.9,0h-4.2l-0.3-4.1c-2.6-32.6-14.4-61.4-35.3-85.6l-2.7-3.2l26.7-26.6l2.9,1.5
	c9.9,5.2,20,5.9,30.2,2.1c7.8-2.9,13.9-8.1,18.1-15.5c8.3-14.5,5.3-33-7.1-44.1c-12.4-11-31.1-12-44.6-2.2
	c-11.8,8.6-20,26.7-10,46.2l1.5,2.9l-26.6,26.6l-3.2-2.7c-24.2-20.7-52.9-32.5-85.5-35.1l-4.1-0.3v-4.2c0-2.1,0-4.2,0-6.2
	c0-6.5-0.1-13.3,0.2-19.9c0.1-2.9,2.5-5.2,7.2-7.1c10.9-4.4,18.8-13.3,21.6-24.6c2.8-11.2,0-22.8-7.6-31.6
	c-5-5.8-11.8-9.7-21.4-12.3h-10.5c-1.6,0.7-3.2,1.3-4.8,1.9c-3.9,1.5-7.6,2.9-10.6,5c-11.3,7.8-16.2,18.8-14.7,32.6
	c1.6,14,9.1,23.7,22.4,29c5.4,2.2,7.7,5.6,7.4,11.2c-0.2,5-0.2,10-0.1,15.3c0,2.3,0,4.6,0,6.9v4.2l-4.1,0.3
	c-32.6,2.6-61.4,14.4-85.6,35.3l-3.2,2.7l-26.7-26.7l1.5-2.9c5.3-10.1,6-20.4,2-30.7c-2.9-7.6-8.1-13.5-15.3-17.7
	c-14.3-8.3-32.9-5.3-44.1,7.2c-11.1,12.3-12,31-2.1,44.6c8.8,12.2,26.5,20,46.2,10l2.9-1.5l26.6,26.6l-2.7,3.2
	c-10.3,12-18.5,25.2-24.3,39.4c-6.1,14.8-9.6,29.8-10.7,46.1l-0.3,4.2h-4.2c-2.1,0-4.2,0-6.3,0c-6.9,0-13.3,0.1-20-0.2
	c-2.9-0.1-5.2-2.5-7.1-7.2c-4.8-11.9-15.2-20.3-27.8-22.2c-12.2-1.9-24.2,2.6-32,12.2c-2.7,3.3-4.5,7.6-6.3,12.2
	c-0.8,1.9-1.6,3.9-2.5,5.8v10.3c0.3,0.9,0.6,1.8,0.9,2.7c0.7,2.3,1.4,4.5,2.3,6.6c5.7,13,18.8,21.3,33.2,21c14.1-0.3,27-9.3,32-22.6
	c2.1-5.4,5.5-7.8,11.2-7.5c5,0.2,10,0.2,15.3,0.1c2.3,0,4.5,0,6.9,0h4.1l0.4,4.1c1.5,17,5,32.2,10.9,46.2
	c5.9,14.2,14.1,27.5,24.5,39.5l2.7,3.2l-26.7,26.6l-2.9-1.5c-9.9-5.2-20.1-6-30.3-2.2c-7.6,2.8-13.6,7.9-17.9,15.1
	c-8.6,14.4-5.6,33.1,6.9,44.4c12.3,11.1,31,12,44.6,2.2c11.8-8.5,20-26.7,10-46.2L131,390l26.6-26.6l3.2,2.7
	c24.2,20.7,53,32.6,85.5,35.1l4.1,0.3v4.2c0,2.1,0,4.2,0,6.2c0,6.5,0.1,13.3-0.2,19.9c-0.1,2.9-2.5,5.2-7.2,7.1
	c-10.9,4.3-18.8,13.3-21.6,24.7c-2.8,11.3,0,22.8,7.6,31.6c4.9,5.7,11.5,9.5,21.4,12.3h10.6c1-0.3,2-0.7,3-1
	c2.5-0.8,4.8-1.5,6.9-2.6c14.1-7.2,20.9-18.5,20.2-33.7c-0.7-14.9-8.3-25.4-22.5-31.2c-5.4-2.2-7.7-5.6-7.4-11.2
	c0.2-5,0.2-10,0.1-15.3c0-2.3,0-4.6,0-6.9v-4.2l4.1-0.3c32.5-2.5,61.3-14.4,85.6-35.3l3.2-2.7l26.6,26.7l-1.5,2.9
	c-5.2,9.9-6,20.1-2.2,30.3c2.8,7.6,7.9,13.7,15.1,17.9c14.5,8.6,33.2,5.7,44.5-6.9c11.1-12.4,12-31.2,2.2-44.6
	c-8.6-11.8-26.8-20-46.2-10L390,381l-26.7-26.6l2.7-3.2c20.8-24.1,32.7-52.9,35.2-85.6l0.3-4.1h4.2c2.2,0,4.4,0,6.5,0
	c6.4,0,12.5-0.1,18.6,0.2c4.3,0.2,7.1,5,7.9,6.8c4.4,11.2,13.5,19.2,24.9,22c11.2,2.8,22.8,0,31.6-7.6c5.8-4.9,9.6-11.6,12.3-21.4
	v-10.7c-0.3-0.9-0.6-1.8-0.9-2.6C505.9,245.8,505.2,243.6,504.3,241.5z M393.1,84.2c4.6-4.6,10.8-7.1,17.4-7.1c0,0,0,0,0,0
	c6.6,0,12.8,2.6,17.4,7.2c4.6,4.6,7.1,10.8,7,17.4c-0.1,6.6-2.7,12.8-7.3,17.3c-4.6,4.5-10.6,6.9-17,6.9c-0.1,0-0.3,0-0.4,0
	c-13.4-0.2-24-10.9-24.1-24.3C386,95,388.5,88.9,393.1,84.2z M118.6,119c-4.6,4.5-10.6,6.9-17.1,6.9c-0.1,0-0.2,0-0.3,0
	c-6.6-0.1-12.7-2.7-17.3-7.4c-4.5-4.7-7-10.9-6.9-17.5c0.2-13.4,10.9-24,24.4-24c0,0,0,0,0,0c6.6,0,12.8,2.5,17.4,7.2
	c4.6,4.6,7.1,10.8,7,17.4C125.9,108.3,123.3,114.4,118.6,119z M57.1,273.4c-4.6,4.6-10.7,7.1-17.2,7.1c-0.1,0-0.1,0-0.2,0
	c-13.5-0.1-24.4-11.2-24.3-24.7c0.1-6.5,2.7-12.6,7.3-17.2c4.7-4.6,10.9-7.1,17.4-7c0,0,0,0,0,0c0,0,0,0,0,0h0h0
	c13.5,0.1,24.4,11.2,24.3,24.7C64.4,262.7,61.8,268.8,57.1,273.4z M118.9,427.7c-4.6,4.6-10.7,7.2-17.3,7.2c0,0-0.1,0-0.1,0
	c-13.6,0-24.3-10.6-24.4-24.3c0-6.5,2.5-12.7,7-17.3c4.6-4.6,10.7-7.2,17.3-7.3c0,0,0.1,0,0.1,0c13.4,0,24.4,10.9,24.4,24.3
	C126,416.9,123.5,423.1,118.9,427.7z M393.3,393.1c4.6-4.5,10.7-7,17.2-7c0.1,0,0.1,0,0.2,0c13.5,0.1,24.4,11.1,24.3,24.6
	c0,6.6-2.6,12.7-7.2,17.3c-4.6,4.5-10.7,7-17.2,7c-0.1,0-0.1,0-0.2,0c-6.6,0-12.7-2.6-17.3-7.2c-4.6-4.6-7.1-10.8-7-17.3
	C386.1,403.8,388.7,397.7,393.3,393.1z M238.8,57.4c-4.7-4.6-7.3-10.7-7.3-17.2c-0.1-13.5,10.8-24.6,24.3-24.7c0.1,0,0.1,0,0.2,0
	c13.4,0,24.4,10.8,24.5,24.3c0.1,6.5-2.5,12.7-7,17.4c-4.6,4.7-10.7,7.3-17.2,7.3c-0.1,0-0.1,0-0.2,0
	C249.6,64.5,243.5,62,238.8,57.4z M200.5,347.4c-0.1,5.2,0,10.5,0,16.1c0,2.6,0,5.2,0,8v8.1l-6.9-4.3c-1.7-1.1-3.4-2.1-5-3
	c-3.5-2.1-6.8-4-9.9-6.3c-46.6-32.7-67.5-91.6-52.2-146.4c1.6-5.8,5-8.4,10.9-8.1c5.5,0.2,11,0.2,16.7,0.1c2.4,0,4.8,0,7.3,0h4.2
	l0.3,4.2c0.1,2.2,0.3,4.4,0.4,6.6c0.3,4.7,0.6,9.2,0.9,13.7l0.6,11.4c0.9,15.4,1.8,31.3,2.5,47c0.2,3.5,1.4,5.5,4.3,7.3
	c15.4,9.1,28.2,16.8,40.2,24.2c1.9,1.2,3.2,2.9,4.2,4.3c0.4,0.5,0.7,1,1.1,1.4l2.3,2.6l-4.4,6.3h-2.4c-0.9,0-1.7,0-2.6,0
	c-1.9,0-3.8,0-5.6,0C202.4,340.6,200.6,342.4,200.5,347.4z M280.5,471.9c0,13.5-10.9,24.5-24.4,24.6c0,0-0.1,0-0.1,0
	c-6.5,0-12.6-2.5-17.2-7.1c-4.7-4.6-7.2-10.8-7.3-17.3c0-13.5,10.9-24.5,24.4-24.6c0,0,0.1,0,0.1,0
	C269.5,447.5,280.4,458.4,280.5,471.9z M326.3,371l-4.9,3.3l-1.9-5.6c-0.7-2.2-1.5-4.4-2.3-6.6c-3.5-9.6-7-19.4-5.5-30.6
	c0.4-3.2,2.5-5.7,3.4-6.7c1.7-1.8,3.5-3.5,5.2-5.2c2.9-2.8,5.7-5.5,8.1-8.5c1.6-2,2.8-4.9,2.9-7c0.4-9.4,0.3-19.1,0.2-28.5
	c0-2.6,0-5.2,0-7.8c0-5.5-1.8-7.2-7.1-7.3l-0.3,0c-10.3-0.2-15.5-0.2-19.4,1.3c-3.8,1.6-7.3,5.1-15,12.8c-3.1,3.2-7.6,6.7-14.6,5.9
	c-2.8-0.3-5.8-0.2-8.7,0c-3.3,0.2-5.6,2.5-5.6,5.5c0,3,2.4,5.3,5.6,5.4c6.4,0.2,13.1,0.4,19.5-0.1c1.4-0.1,3.5-1.2,5.2-2.7
	c2.1-1.9,4.1-3.9,6.2-6.1c2.1-2.2,4.3-4.4,6.6-6.5c1.9-1.7,4.2-2.8,6.5-3.9c1.1-0.5,2.2-1.1,3.4-1.7l6.6-3.6v7.5c0,2.6,0,5,0,7.4
	c0,6.7,0,12.5-0.1,18.5c-0.1,2.3-1.2,4.6-3.6,7.1c-4.7,4.9-8.7,9-12.9,12.9c-2.3,2.1-3.3,4.6-3.5,8.9c-0.7,12.6,1.2,23.7,5.6,34.1
	c1.1,2.5,1.8,5.1,2.6,7.6c0.3,1.1,0.6,2.1,1,3.1l1,3l-2.5,1.9c-11.4,8.8-34.7,10.7-44.1,11.1c-2.6,0.1-5.1,0.2-7.6,0.2
	c-16.6,0-31.8-2.4-41.8-6.8l-2.7-1.2v-30.8h4.5c1.1,0,2.1,0,3.1,0c2.2,0,4.2,0,6.2,0c2.6-0.1,5.7-1.2,5.9-5.7
	c0.1-4.4,0.1-8.8,0.1-13.2c0-2.1,0-4.1,0-6.2c0-2.1-0.7-4-4.2-6.1c-4.6-2.7-9.2-5.5-13.7-8.3c-8.1-4.9-16.5-9.9-24.8-14.7
	c-5.3-3-7.7-7-8-13c-0.8-16.3-1.7-32.9-2.6-49c-0.5-9-1-17.9-1.5-26.9c-0.4-6.7-1.7-7.9-8.2-8c-6.2,0-12.3,0-18.7,0l-16.1,0l3.3-6.5
	c7.2-14.3,16.2-26.1,27.5-36.2c36.9-33,79.9-43.5,128-31.2c0.2,0.1,0.5,0.1,0.8,0.1c4.9,0.8,7.4,3.4,7.5,7.9c0,2.9,0.1,8.3-6.3,11.2
	c-6.2,2.9-12.4,6-18.4,9c-3.6,1.8-7.3,3.7-11,5.5c-4.3,2.1-4.6,4.4-4.3,6.4c1.8,11.6-2,20.9-12,29.1c-5.1,4.2-9.7,9.1-14.6,14.2
	c-1.8,1.9-3.8,3.9-5.7,5.9c-1.6,1.6-4.8,5.6-1.4,9.1c1,1,2.2,1.6,3.5,1.6c0,0,0,0,0,0c1.8,0,3.7-1,5.6-2.8
	c3.9-3.9,7.8-7.8,11.7-11.8c6.8-6.8,13.8-13.9,20.9-20.7c3.1-3,3.4-6.5,2.8-11.5c-0.8-7.3,2.1-12.1,9.1-15.1c4-1.7,7.8-3.7,11.9-5.8
	c3.5-1.8,7.2-3.7,10.9-5.4c6.4-2.8,9.2-5.5,7.8-12.6l-1.9-9.8l8.6,5c46.1,27.1,70.5,65.6,72.3,114.6
	C392,300.7,370.5,341.1,326.3,371z M472.2,280.5c-0.1,0-0.1,0-0.2,0c-6.4,0-12.5-2.5-17.1-7c-4.7-4.6-7.3-10.7-7.3-17.2
	c-0.1-13.5,10.8-24.6,24.2-24.7c13.5-0.1,24.6,10.8,24.7,24.2C496.6,269.3,485.7,280.4,472.2,280.5z"/>
<path class="st0" d="M226,260.5C226,260.5,226,260.5,226,260.5c-2.9,0-5.4,2.5-5.5,5.4c0,1.4,0.5,2.8,1.6,3.9
	c1.1,1.1,2.4,1.6,3.9,1.6c2.9,0,5.4-2.5,5.4-5.4c0-1.4-0.5-2.8-1.6-3.9C228.8,261.1,227.4,260.5,226,260.5z"/>
</svg>
