<?xml version="1.0" encoding="utf-8"?>
<!-- Generator: Adobe Illustrator 22.1.0, SVG Export Plug-In . SVG Version: 6.00 Build 0)  -->
<svg version="1.1" id="Layer_1" xmlns="http://www.w3.org/2000/svg" xmlns:xlink="http://www.w3.org/1999/xlink" x="0px" y="0px"
	 viewBox="0 0 65 65" style="enable-background:new 0 0 65 65;" xml:space="preserve">
<style type="text/css">
	.st0{fill:#FFFFFF;}
</style>
<g>
	<path class="st0" d="M64.6,30.6c-0.8-1.7-2.5-2.8-4.3-2.7c-2,0.1-3.3,1.1-4.1,2.9c-0.2,0.5-0.5,1-1.4,1c-0.6,0-1.3,0-2,0
		c-0.3,0-0.6,0-0.9,0h-0.5l0-0.5c-0.3-4.2-1.9-7.9-4.6-11.1l-0.4-0.4l3.5-3.4l0.4,0.2c1.3,0.7,2.6,0.8,3.9,0.3c1-0.4,1.8-1,2.3-2
		c1.1-1.9,0.7-4.3-0.9-5.7c-1.6-1.4-4-1.5-5.8-0.3c-1.5,1.1-2.6,3.4-1.3,6l0.2,0.4l-3.4,3.4l-0.4-0.4c-3.1-2.7-6.8-4.2-11-4.5
		l-0.5,0v-0.5c0-0.3,0-0.5,0-0.8c0-0.8,0-1.7,0-2.6c0-0.4,0.3-0.7,0.9-0.9c1.4-0.6,2.4-1.7,2.8-3.2c0.4-1.5,0-2.9-1-4.1
		c-0.6-0.7-1.5-1.3-2.8-1.6h-1.4c-0.2,0.1-0.4,0.2-0.6,0.2c-0.5,0.2-1,0.4-1.4,0.6c-1.5,1-2.1,2.4-1.9,4.2c0.2,1.8,1.2,3.1,2.9,3.7
		c0.7,0.3,1,0.7,1,1.4c0,0.6,0,1.3,0,2c0,0.3,0,0.6,0,0.9v0.5l-0.5,0c-4.2,0.3-7.9,1.9-11.1,4.6l-0.4,0.4l-3.4-3.4l0.2-0.4
		c0.7-1.3,0.8-2.6,0.3-4c-0.4-1-1-1.7-2-2.3C13,7.5,10.6,7.9,9.1,9.5c-1.4,1.6-1.5,4-0.3,5.8c1.1,1.6,3.4,2.6,6,1.3l0.4-0.2l3.4,3.4
		l-0.4,0.4c-1.3,1.5-2.4,3.3-3.1,5.1c-0.8,1.9-1.2,3.9-1.4,6l0,0.5h-0.5c-0.3,0-0.5,0-0.8,0c-0.9,0-1.7,0-2.6,0
		c-0.4,0-0.7-0.3-0.9-0.9c-0.6-1.5-2-2.6-3.6-2.9c-1.6-0.2-3.1,0.3-4.1,1.6c-0.3,0.4-0.6,1-0.8,1.6c-0.1,0.2-0.2,0.5-0.3,0.7v1.3
		c0,0.1,0.1,0.2,0.1,0.3c0.1,0.3,0.2,0.6,0.3,0.8c0.7,1.7,2.4,2.7,4.3,2.7c1.8,0,3.5-1.2,4.1-2.9c0.3-0.7,0.7-1,1.4-1
		c0.6,0,1.3,0,2,0c0.3,0,0.6,0,0.9,0h0.5l0,0.5c0.2,2.2,0.6,4.2,1.4,6c0.8,1.8,1.8,3.6,3.2,5.1l0.4,0.4l-3.4,3.4l-0.4-0.2
		c-1.3-0.7-2.6-0.8-3.9-0.3c-1,0.4-1.8,1-2.3,2c-1.1,1.9-0.7,4.3,0.9,5.7c1.6,1.4,4,1.5,5.8,0.3c1.5-1.1,2.6-3.4,1.3-6l-0.2-0.4
		l3.4-3.4l0.4,0.4c3.1,2.7,6.8,4.2,11.1,4.5l0.5,0v0.5c0,0.3,0,0.5,0,0.8c0,0.8,0,1.7,0,2.6c0,0.4-0.3,0.7-0.9,0.9
		c-1.4,0.6-2.4,1.7-2.8,3.2c-0.4,1.5,0,2.9,1,4.1c0.6,0.7,1.5,1.2,2.8,1.6h1.4c0.1,0,0.3-0.1,0.4-0.1c0.3-0.1,0.6-0.2,0.9-0.3
		c1.8-0.9,2.7-2.4,2.6-4.4c-0.1-1.9-1.1-3.3-2.9-4c-0.7-0.3-1-0.7-1-1.4c0-0.6,0-1.3,0-2c0-0.3,0-0.6,0-0.9v-0.5l0.5,0
		c4.2-0.3,7.9-1.9,11.1-4.6l0.4-0.4l3.4,3.4l-0.2,0.4c-0.7,1.3-0.8,2.6-0.3,3.9c0.4,1,1,1.8,2,2.3c1.9,1.1,4.3,0.7,5.7-0.9
		c1.4-1.6,1.5-4,0.3-5.8c-1.1-1.5-3.5-2.6-6-1.3l-0.4,0.2l-3.5-3.4l0.4-0.4c2.7-3.1,4.2-6.8,4.6-11.1l0-0.5h0.5c0.3,0,0.6,0,0.8,0
		c0.8,0,1.6,0,2.4,0c0.6,0,0.9,0.6,1,0.9c0.6,1.4,1.7,2.5,3.2,2.8c1.5,0.4,2.9,0,4.1-1c0.7-0.6,1.2-1.5,1.6-2.8v-1.4
		c0-0.1-0.1-0.2-0.1-0.3C64.8,31.2,64.7,30.9,64.6,30.6z M50.2,10.3c0.6-0.6,1.4-0.9,2.2-0.9c0,0,0,0,0,0c0.9,0,1.7,0.3,2.2,0.9
		c0.6,0.6,0.9,1.4,0.9,2.3c0,0.9-0.3,1.7-0.9,2.2c-0.6,0.6-1.4,0.9-2.2,0.9c0,0,0,0-0.1,0c-1.7,0-3.1-1.4-3.1-3.1
		C49.3,11.7,49.6,10.9,50.2,10.3z M14.7,14.8c-0.6,0.6-1.4,0.9-2.2,0.9c0,0,0,0,0,0c-0.9,0-1.6-0.3-2.2-1c-0.6-0.6-0.9-1.4-0.9-2.3
		c0-1.7,1.4-3.1,3.2-3.1c0,0,0,0,0,0c0.9,0,1.7,0.3,2.2,0.9c0.6,0.6,0.9,1.4,0.9,2.2C15.7,13.4,15.3,14.2,14.7,14.8z M6.8,34.8
		c-0.6,0.6-1.4,0.9-2.2,0.9c0,0,0,0,0,0c-1.7,0-3.1-1.4-3.1-3.2c0-0.8,0.3-1.6,0.9-2.2c0.6-0.6,1.4-0.9,2.2-0.9c0,0,0,0,0,0
		c0,0,0,0,0,0h0h0c1.7,0,3.2,1.4,3.1,3.2C7.7,33.4,7.4,34.2,6.8,34.8z M14.8,54.7c-0.6,0.6-1.4,0.9-2.2,0.9c0,0,0,0,0,0
		c-1.8,0-3.1-1.4-3.2-3.1c0-0.8,0.3-1.6,0.9-2.2c0.6-0.6,1.4-0.9,2.2-0.9c0,0,0,0,0,0c1.7,0,3.1,1.4,3.2,3.1
		C15.7,53.3,15.4,54.1,14.8,54.7z M50.2,50.2c0.6-0.6,1.4-0.9,2.2-0.9c0,0,0,0,0,0c1.7,0,3.1,1.4,3.1,3.2c0,0.8-0.3,1.6-0.9,2.2
		c-0.6,0.6-1.4,0.9-2.2,0.9c0,0,0,0,0,0c-0.8,0-1.6-0.3-2.2-0.9c-0.6-0.6-0.9-1.4-0.9-2.2C49.3,51.6,49.6,50.8,50.2,50.2z M30.3,6.8
		c-0.6-0.6-0.9-1.4-0.9-2.2c0-1.7,1.4-3.2,3.1-3.2c0,0,0,0,0,0c1.7,0,3.2,1.4,3.2,3.1c0,0.8-0.3,1.6-0.9,2.2
		c-0.6,0.6-1.4,0.9-2.2,0.9c0,0,0,0,0,0C31.7,7.8,30.9,7.4,30.3,6.8z M25.3,44.3c0,0.7,0,1.4,0,2.1c0,0.3,0,0.7,0,1v1l-0.9-0.6
		c-0.2-0.1-0.4-0.3-0.6-0.4c-0.4-0.3-0.9-0.5-1.3-0.8c-6-4.2-8.7-11.8-6.7-18.9c0.2-0.8,0.6-1.1,1.4-1c0.7,0,1.4,0,2.2,0
		c0.3,0,0.6,0,0.9,0h0.5l0,0.5c0,0.3,0,0.6,0.1,0.9c0,0.6,0.1,1.2,0.1,1.8l0.1,1.5c0.1,2,0.2,4,0.3,6.1c0,0.5,0.2,0.7,0.6,0.9
		c2,1.2,3.6,2.2,5.2,3.1c0.2,0.2,0.4,0.4,0.5,0.6c0,0.1,0.1,0.1,0.1,0.2l0.3,0.3l-0.6,0.8h-0.3c-0.1,0-0.2,0-0.3,0
		c-0.2,0-0.5,0-0.7,0C25.6,43.4,25.3,43.7,25.3,44.3z M35.7,60.4c0,1.7-1.4,3.2-3.2,3.2c0,0,0,0,0,0c-0.8,0-1.6-0.3-2.2-0.9
		c-0.6-0.6-0.9-1.4-0.9-2.2c0-1.7,1.4-3.2,3.2-3.2c0,0,0,0,0,0C34.2,57.2,35.7,58.7,35.7,60.4z M41.6,47.4l-0.6,0.4l-0.2-0.7
		c-0.1-0.3-0.2-0.6-0.3-0.9c-0.4-1.2-0.9-2.5-0.7-3.9c0.1-0.4,0.3-0.7,0.4-0.9c0.2-0.2,0.5-0.5,0.7-0.7c0.4-0.4,0.7-0.7,1.1-1.1
		c0.2-0.3,0.4-0.6,0.4-0.9c0-1.2,0-2.5,0-3.7c0-0.3,0-0.7,0-1c0-0.7-0.2-0.9-0.9-0.9l0,0c-1.3,0-2,0-2.5,0.2
		c-0.5,0.2-0.9,0.7-1.9,1.7c-0.4,0.4-1,0.9-1.9,0.8c-0.4,0-0.7,0-1.1,0c-0.4,0-0.7,0.3-0.7,0.7c0,0.4,0.3,0.7,0.7,0.7
		c0.8,0,1.7,0.1,2.5,0c0.2,0,0.4-0.2,0.7-0.4c0.3-0.2,0.5-0.5,0.8-0.8c0.3-0.3,0.6-0.6,0.9-0.8c0.3-0.2,0.5-0.4,0.8-0.5
		c0.1-0.1,0.3-0.1,0.4-0.2l0.9-0.5v1c0,0.3,0,0.7,0,1c0,0.9,0,1.6,0,2.4c0,0.3-0.2,0.6-0.5,0.9c-0.6,0.6-1.1,1.2-1.7,1.7
		c-0.3,0.3-0.4,0.6-0.5,1.2c-0.1,1.6,0.2,3.1,0.7,4.4c0.1,0.3,0.2,0.7,0.3,1c0,0.1,0.1,0.3,0.1,0.4l0.1,0.4l-0.3,0.2
		c-1.5,1.1-4.5,1.4-5.7,1.4c-0.3,0-0.7,0-1,0c-2.1,0-4.1-0.3-5.4-0.9l-0.3-0.2v-4h0.6c0.1,0,0.3,0,0.4,0c0.3,0,0.5,0,0.8,0
		c0.3,0,0.7-0.2,0.8-0.7c0-0.6,0-1.1,0-1.7c0-0.3,0-0.5,0-0.8c0-0.3-0.1-0.5-0.5-0.8c-0.6-0.4-1.2-0.7-1.8-1.1
		c-1-0.6-2.1-1.3-3.2-1.9c-0.7-0.4-1-0.9-1-1.7c-0.1-2.1-0.2-4.3-0.3-6.3c-0.1-1.2-0.1-2.3-0.2-3.5c0-0.9-0.2-1-1.1-1
		c-0.8,0-1.6,0-2.4,0l-2.1,0l0.4-0.8c0.9-1.8,2.1-3.4,3.5-4.7c4.8-4.3,10.3-5.6,16.5-4c0,0,0.1,0,0.1,0c0.6,0.1,1,0.4,1,1
		c0,0.4,0,1.1-0.8,1.5c-0.8,0.4-1.6,0.8-2.4,1.2c-0.5,0.2-0.9,0.5-1.4,0.7c-0.6,0.3-0.6,0.6-0.6,0.8c0.2,1.5-0.3,2.7-1.6,3.8
		c-0.7,0.5-1.3,1.2-1.9,1.8c-0.2,0.3-0.5,0.5-0.7,0.8c-0.2,0.2-0.6,0.7-0.2,1.2c0.1,0.1,0.3,0.2,0.4,0.2c0,0,0,0,0,0
		c0.2,0,0.5-0.1,0.7-0.4c0.5-0.5,1-1,1.5-1.5c0.9-0.9,1.8-1.8,2.7-2.7c0.4-0.4,0.4-0.8,0.4-1.5c-0.1-0.9,0.3-1.6,1.2-2
		c0.5-0.2,1-0.5,1.5-0.7c0.5-0.2,0.9-0.5,1.4-0.7c0.8-0.4,1.2-0.7,1-1.6l-0.2-1.3l1.1,0.7c6,3.5,9.1,8.5,9.3,14.8
		C50.1,38.3,47.3,43.5,41.6,47.4z M60.4,35.7C60.4,35.7,60.4,35.7,60.4,35.7c-0.9,0-1.6-0.3-2.2-0.9c-0.6-0.6-0.9-1.4-0.9-2.2
		c0-1.7,1.4-3.2,3.1-3.2c1.7,0,3.2,1.4,3.2,3.1C63.6,34.2,62.2,35.6,60.4,35.7z"/>
	<path class="st0" d="M28.6,33.1C28.6,33.1,28.6,33.1,28.6,33.1c-0.4,0-0.7,0.3-0.7,0.7c0,0.2,0.1,0.4,0.2,0.5
		c0.1,0.1,0.3,0.2,0.5,0.2c0.4,0,0.7-0.3,0.7-0.7c0-0.2-0.1-0.4-0.2-0.5C29,33.2,28.8,33.1,28.6,33.1z"/>
</g>
</svg>
