<svg width="16" height="16" viewBox="0 0 16 16" fill="none" xmlns="http://www.w3.org/2000/svg">
<path fill="#001FE4" d="M12.8538 0.146393C12.76 0.0526577 12.6329 0 12.5003 0C12.3677 0 12.2406 0.0526577 12.1468 0.146393L10.4998 1.79339L14.2068 5.50039L15.8538 3.85439C15.9004 3.80795 15.9373 3.75277 15.9625 3.69203C15.9877 3.63128 16.0007 3.56616 16.0007 3.50039C16.0007 3.43463 15.9877 3.3695 15.9625 3.30876C15.9373 3.24801 15.9004 3.19284 15.8538 3.14639L12.8538 0.146393ZM13.4998 6.20739L9.79281 2.50039L3.29281 9.00039H3.49981C3.63241 9.00039 3.75959 9.05307 3.85336 9.14684C3.94713 9.24061 3.99981 9.36778 3.99981 9.50039V10.0004H4.49981C4.63241 10.0004 4.75959 10.0531 4.85336 10.1468C4.94713 10.2406 4.99981 10.3678 4.99981 10.5004V11.0004H5.49981C5.63241 11.0004 5.75959 11.0531 5.85336 11.1468C5.94713 11.2406 5.99981 11.3678 5.99981 11.5004V12.0004H6.49981C6.63241 12.0004 6.75959 12.0531 6.85336 12.1468C6.94713 12.2406 6.99981 12.3678 6.99981 12.5004V12.7074L13.4998 6.20739ZM6.03181 13.6754C6.01076 13.6194 5.99993 13.5602 5.99981 13.5004V13.0004H5.49981C5.3672 13.0004 5.24002 12.9477 5.14625 12.8539C5.05248 12.7602 4.99981 12.633 4.99981 12.5004V12.0004H4.49981C4.3672 12.0004 4.24002 11.9477 4.14625 11.8539C4.05248 11.7602 3.99981 11.633 3.99981 11.5004V11.0004H3.49981C3.3672 11.0004 3.24002 10.9477 3.14625 10.8539C3.05248 10.7602 2.99981 10.633 2.99981 10.5004V10.0004H2.49981C2.44003 10.0003 2.38075 9.98946 2.32481 9.96839L2.14581 10.1464C2.09816 10.1944 2.06073 10.2515 2.03581 10.3144L0.0358061 15.3144C-0.000564594 15.4053 -0.0094681 15.5048 0.0101994 15.6007C0.0298668 15.6966 0.0772403 15.7845 0.146447 15.8538C0.215653 15.923 0.303649 15.9703 0.399526 15.99C0.495402 16.0097 0.594942 16.0008 0.685806 15.9644L5.68581 13.9644C5.74867 13.9395 5.80582 13.902 5.85381 13.8544L6.03181 13.6764V13.6754Z"/>
</svg>
