<?xml version="1.0" standalone="no"?>
<!DOCTYPE svg PUBLIC "-//W3C//DTD SVG 20010904//EN"
 "http://www.w3.org/TR/2001/REC-SVG-20010904/DTD/svg10.dtd">
<svg version="1.0" xmlns="http://www.w3.org/2000/svg"
 width="160.000000pt" height="160.000000pt" viewBox="0 0 160.000000 160.000000"
 preserveAspectRatio="xMidYMid meet">
<metadata>
Created by potrace 1.14, written by Peter Selinger 2001-2017
</metadata>
<g transform="translate(0.000000,160.000000) scale(0.100000,-0.100000)"
fill="#000000" stroke="none">
<path d="M40 1306 l0 -53 203 -5 c175 -4 211 -8 267 -27 213 -74 340 -289 296
-501 -30 -142 -119 -254 -253 -318 l-78 -37 -217 -3 -218 -3 0 -60 0 -59 173
0 c257 0 346 20 474 106 l65 44 39 -31 c58 -46 146 -87 224 -104 53 -12 116
-15 260 -13 l190 3 0 55 0 55 -221 5 -220 5 -75 37 c-40 21 -84 47 -97 57
l-23 20 32 55 31 56 41 -35 c63 -54 131 -75 242 -75 l95 0 0 60 0 60 -93 0
c-79 0 -101 4 -138 23 -101 53 -135 184 -74 283 43 69 98 95 215 102 l90 5 0
53 0 54 -98 0 c-119 0 -174 -17 -236 -71 l-45 -40 -28 53 c-15 29 -29 56 -31
59 -4 9 95 72 148 95 38 15 80 19 265 24 l220 5 3 58 3 57 -203 0 c-217 0
-273 -8 -373 -54 -27 -13 -71 -39 -96 -58 l-46 -35 -39 29 c-125 95 -219 118
-481 118 l-193 0 0 -54z"/>
<path d="M240 1067 l0 -55 93 -4 c79 -3 100 -8 140 -31 121 -71 137 -233 32
-325 -52 -46 -105 -62 -199 -62 l-66 0 0 -56 0 -57 108 5 c101 4 113 7 173 39
230 126 223 447 -13 571 -35 18 -63 23 -155 26 l-113 4 0 -55z"/>
</g>
</svg>
